<svg xmlns="http://www.w3.org/2000/svg" width="15" height="12" viewBox="0 0 15 12" fill="none">
    <path d="M0 1.90974H13.4375C14.3004 1.90974 15 2.51034 15 3.25121V9.95852C15 10.6994 14.3004 11.3 13.4375 11.3H7.5H1.5625C0.699555 11.3 0 10.6994 0 9.95852V1.90974Z" fill="#427ED7"/>
    <path d="M0 3.92194V9.42194C0 10.1628 0.699555 10.7634 1.5625 10.7634H13.4375C14.3004 10.7634 15 10.1628 15 9.42194V3.78779C15 3.04692 14.3004 2.44633 13.4375 2.44633H6.875V3.11706C6.875 3.56158 6.45527 3.92194 5.9375 3.92194H0Z" fill="url(#paint0_linear_53_1173)"/>
    <path d="M0 1.37316C0 0.780463 0.559644 0.299988 1.25 0.299988H5.625C6.31536 0.299988 6.875 0.780463 6.875 1.37316V1.90974H0V1.37316Z" fill="#427ED7"/>
    <defs>
    <linearGradient id="paint0_linear_53_1173" x1="0" y1="0.299988" x2="18.132" y2="12.9543" gradientUnits="userSpaceOnUse">
    <stop offset="0.199652" stop-color="#0052CC"/>
    <stop offset="0.527777" stop-color="#2684FF"/>
    <stop offset="1" stop-color="#0E64DF"/>
    </linearGradient>
    </defs>
</svg>