<svg width="12" height="14" viewBox="0 0 12 14" fill="none" xmlns="http://www.w3.org/2000/svg">
<path d="M0 4.43286V11.9329C0 12.7612 0.671625 13.4329 1.5 13.4329H10.5C11.3284 13.4329 12 12.7612 12 11.9329V4.43286H0Z" fill="#9071C1"/>
<path d="M10.5 1.43286H1.5C0.671625 1.43286 0 2.10449 0 2.93286V4.80786H12V2.93286C12 2.10449 11.3284 1.43286 10.5 1.43286Z" fill="#583989"/>
<path d="M2.56378 3.20708C2.30053 3.20708 2.08716 2.95733 2.08716 2.64871C2.08716 2.34046 2.30053 2.09033 2.56378 2.09033C2.82666 2.09033 3.04003 2.34046 3.04003 2.64871C3.04003 2.95696 2.82666 3.20708 2.56378 3.20708ZM4.81378 3.20708C4.55053 3.20708 4.33716 2.95733 4.33716 2.64871C4.33716 2.34046 4.55053 2.09033 4.81378 2.09033C5.07666 2.09033 5.29003 2.34046 5.29003 2.64871C5.29003 2.95696 5.07666 3.20708 4.81378 3.20708ZM7.06378 3.20708C6.80053 3.20708 6.58716 2.95733 6.58716 2.64871C6.58716 2.34046 6.80053 2.09033 7.06378 2.09033C7.32666 2.09033 7.54041 2.34046 7.54041 2.64871C7.54003 2.95696 7.32666 3.20708 7.06378 3.20708ZM9.31378 3.20708C9.05053 3.20708 8.83716 2.95733 8.83716 2.64871C8.83716 2.34046 9.05053 2.09033 9.31378 2.09033C9.57666 2.09033 9.79041 2.34046 9.79041 2.64871C9.79003 2.95696 9.57666 3.20708 9.31378 3.20708Z" fill="#3C1D6E"/>
<path d="M9.49341 0C9.01453 0 8.59978 0.30075 8.37066 0.73875C8.14341 0.310125 7.72678 0 7.24341 0C6.76453 0 6.34978 0.30075 6.12066 0.73875C5.89341 0.310125 5.47678 0 4.99341 0C4.51453 0 4.09978 0.30075 3.87066 0.73875C3.64341 0.310125 3.22678 0 2.74341 0C2.01816 0 1.43091 0.682125 1.43091 1.50188C1.43091 2.19713 1.82278 2.766 2.39428 2.97412C2.67891 3.07725 2.85328 2.8065 2.82891 2.58938C2.80828 2.40938 2.68866 2.292 2.55553 2.20763C2.37366 2.0925 2.18053 1.82963 2.18053 1.50375C2.18053 1.08975 2.43216 0.718125 2.74303 0.718125C3.05391 0.718125 3.30553 1.0575 3.30553 1.4325H3.68653C3.68541 1.45575 3.68053 1.47788 3.68053 1.5015C3.68053 2.19675 4.07241 2.76563 4.64391 2.97375C4.92853 3.07688 5.10291 2.80613 5.07853 2.589C5.05791 2.40938 4.93828 2.292 4.80516 2.20763C4.62328 2.0925 4.43016 1.82963 4.43016 1.50375C4.43016 1.08975 4.68178 0.718125 4.99266 0.718125C5.30353 0.718125 5.55591 1.05788 5.55591 1.43288H5.93691C5.93578 1.45613 5.93091 1.47825 5.93091 1.50188C5.93091 2.19713 6.32278 2.766 6.89428 2.97412C7.17891 3.07725 7.35328 2.8065 7.32891 2.58938C7.30828 2.40975 7.18866 2.29238 7.05553 2.208C6.87366 2.09288 6.68053 1.83 6.68053 1.50413C6.68053 1.09013 6.93216 0.7185 7.24303 0.7185C7.55391 0.7185 7.80591 1.05788 7.80591 1.43288H8.18691C8.18578 1.45613 8.18091 1.47825 8.18091 1.50188C8.18091 2.19713 8.57278 2.766 9.14428 2.97412C9.42891 3.07725 9.60328 2.8065 9.57891 2.58938C9.55828 2.40975 9.43866 2.29238 9.30553 2.208C9.12366 2.09288 8.93053 1.83 8.93053 1.50413C8.93053 1.09013 9.18216 0.7185 9.49303 0.7185C9.80391 0.7185 10.0559 1.05788 10.0559 1.43288H10.8044C10.7965 0.682875 10.2134 0 9.49341 0Z" fill="#5F4090"/>
<path d="M3.375 5.55786H4.875V7.05786H3.375V5.55786ZM5.25 5.55786H6.75V7.05786H5.25V5.55786ZM7.125 5.55786H8.625V7.05786H7.125V5.55786ZM9 5.55786H10.5V7.05786H9V5.55786ZM1.5 7.43286H3V8.93286H1.5V7.43286ZM3.375 7.43286H4.875V8.93286H3.375V7.43286ZM5.25 7.43286H6.75V8.93286H5.25V7.43286ZM7.125 7.43286H8.625V8.93286H7.125V7.43286ZM9 7.43286H10.5V8.93286H9V7.43286ZM1.5 9.30786H3V10.8079H1.5V9.30786ZM3.375 9.30786H4.875V10.8079H3.375V9.30786ZM5.25 9.30786H6.75V10.8079H5.25V9.30786ZM7.125 9.30786H8.625V10.8079H7.125V9.30786ZM9 9.30786H10.5V10.8079H9V9.30786ZM1.5 11.1829H3V12.6829H1.5V11.1829ZM3.375 11.1829H4.875V12.6829H3.375V11.1829ZM5.25 11.1829H6.75V12.6829H5.25V11.1829Z" fill="#A58BCA"/>
</svg>
