<svg width="36" height="36" viewBox="0 0 36 36" fill="none" xmlns="http://www.w3.org/2000/svg">
<path d="M25.1894 2.625H10.125C9.71078 2.625 9.375 2.96078 9.375 3.375V32.625C9.375 33.0392 9.71078 33.375 10.125 33.375H31.875C32.2892 33.375 32.625 33.0392 32.625 32.625V10.0606C32.625 9.86175 32.546 9.67099 32.4053 9.53032L25.7197 2.84468C25.579 2.70401 25.3883 2.625 25.1894 2.625Z" fill="white" stroke="#979593" stroke-width="2" stroke-miterlimit="10"/>
<path d="M25.125 2.625V9.375C25.125 9.78922 25.4608 10.125 25.875 10.125H32.625" stroke="#979593" stroke-width="2" stroke-miterlimit="10"/>
<path d="M29.625 22.875H18V22.125H29.625C29.8321 22.125 30 22.2929 30 22.5C30 22.7071 29.8321 22.875 29.625 22.875ZM29.625 20.625H18V19.875H29.625C29.8321 19.875 30 20.0429 30 20.25C30 20.4571 29.8321 20.625 29.625 20.625ZM29.625 18.375H18V17.625H29.625C29.8321 17.625 30 17.7929 30 18C30 18.2071 29.8321 18.375 29.625 18.375ZM29.625 16.125H18V15.375H29.625C29.8321 15.375 30 15.5429 30 15.75C30 15.9571 29.8321 16.125 29.625 16.125ZM29.625 25.125H18V24.375H29.625C29.8321 24.375 30 24.5429 30 24.75C30 24.9571 29.8321 25.125 29.625 25.125Z" fill="#C8C6C4"/>
<path d="M4.5 27.75H16.5C17.3284 27.75 18 27.0784 18 26.25V14.25C18 13.4216 17.3284 12.75 16.5 12.75H4.5C3.67159 12.75 3 13.4216 3 14.25V26.25C3 27.0784 3.67159 27.75 4.5 27.75Z" fill="#185ABD"/>
<path d="M8.10919 22.7421C8.13398 22.9378 8.15006 23.1084 8.15779 23.2542H8.18636C8.19784 23.116 8.2197 22.9494 8.25202 22.7536C8.28435 22.5582 8.31589 22.3932 8.34641 22.259L9.67166 16.5H11.3855L12.7566 22.1727C12.8252 22.4528 12.8823 22.8092 12.9279 23.2427H12.9507C12.9698 22.9434 13.0174 22.5982 13.0936 22.2071L14.1905 16.5H15.75L13.8306 24.75H12.0081L10.6999 19.2846C10.6618 19.1272 10.619 18.9222 10.5714 18.669C10.5238 18.416 10.4943 18.2319 10.4829 18.1168H10.4601C10.4448 18.2511 10.4153 18.4504 10.3714 18.7149C10.3276 18.9798 10.2923 19.1752 10.2657 19.3018L9.0375 24.75H7.18661L5.25 16.5H6.83809L8.0322 22.2706C8.05879 22.3893 8.0844 22.5466 8.10919 22.7421Z" fill="white"/>
</svg>
