<svg width="34" height="34" viewBox="0 0 34 34" fill="none" xmlns="http://www.w3.org/2000/svg">
<path d="M7.79175 1.41675C6.61814 1.41675 5.66675 2.36814 5.66675 3.54175V30.4584C5.66675 31.632 6.61814 32.5834 7.79175 32.5834H26.2084C27.382 32.5834 28.3334 31.632 28.3334 30.4584V9.91675L19.8334 1.41675H7.79175Z" fill="#4E8DF5"/>
<path d="M7.79175 32.5834C6.61814 32.5834 5.66675 31.632 5.66675 30.4584V30.1042C5.66675 31.2779 6.61814 32.2292 7.79175 32.2292H26.2084C27.382 32.2292 28.3334 31.2779 28.3334 30.1042V30.4584C28.3334 31.632 27.382 32.5834 26.2084 32.5834H7.79175Z" fill="#417EE9"/>
<path d="M7.79175 1.41675C6.61814 1.41675 5.66675 2.36814 5.66675 3.54175V3.89591C5.66675 2.72231 6.61814 1.77091 7.79175 1.77091H20.1876L19.8334 1.41675H7.79175Z" fill="#639AF6"/>
<path d="M28.3333 17.177V9.91659L27.0937 8.677H21.1158C20.6425 8.677 20.4055 9.24923 20.7402 9.5839L28.3333 17.177Z" fill="url(#paint0_linear_760_754)"/>
<path d="M19.8333 1.41675L28.3333 9.91675H21.9583C20.7846 9.91675 19.8333 8.96535 19.8333 7.79175V1.41675Z" fill="#A6C5FA"/>
<path d="M22.6666 17H11.3333V18.4167H22.6666V17Z" fill="white"/>
<path d="M22.6666 19.8333H11.3333V21.25H22.6666V19.8333Z" fill="white"/>
<path d="M11.3333 22.6667H22.6666V24.0833H11.3333V22.6667Z" fill="white"/>
<path d="M19.8333 25.5H11.3333V26.9167H19.8333V25.5Z" fill="white"/>
<defs>
<linearGradient id="paint0_linear_760_754" x1="24.0833" y1="17.177" x2="24.0833" y2="8.49992" gradientUnits="userSpaceOnUse">
<stop stop-color="#4E8DF5"/>
<stop offset="1" stop-color="#3D6ACD"/>
</linearGradient>
</defs>
</svg>
