<svg width="34" height="36" viewBox="0 0 34 36" fill="none" xmlns="http://www.w3.org/2000/svg">
<path d="M7.79175 1.41675C6.61814 1.41675 5.66675 2.36814 5.66675 3.54175V30.4584C5.66675 31.632 6.61814 32.5834 7.79175 32.5834H26.2084C27.382 32.5834 28.3334 31.632 28.3334 30.4584V9.91675L19.8334 1.41675H7.79175Z" fill="#4E8DF5"/>
<path d="M7.79175 32.5834C6.61814 32.5834 5.66675 31.632 5.66675 30.4584V30.1042C5.66675 31.2779 6.61814 32.2292 7.79175 32.2292H26.2084C27.382 32.2292 28.3334 31.2779 28.3334 30.1042V30.4584C28.3334 31.632 27.382 32.5834 26.2084 32.5834H7.79175Z" fill="#417EE9"/>
<path d="M7.79175 1.41675C6.61814 1.41675 5.66675 2.36814 5.66675 3.54175V3.89591C5.66675 2.72231 6.61814 1.77091 7.79175 1.77091H20.1876L19.8334 1.41675H7.79175Z" fill="#639AF6"/>
<path d="M28.3333 17.177V9.91659L27.0937 8.677H21.1158C20.6425 8.677 20.4055 9.24923 20.7402 9.5839L28.3333 17.177Z" fill="url(#paint0_linear_763_772)"/>
<path d="M19.8333 1.41675L28.3333 9.91675H21.9583C20.7846 9.91675 19.8333 8.96535 19.8333 7.79175V1.41675Z" fill="#A6C5FA"/>
<path d="M22.6666 17H11.3333V18.4167H22.6666V17Z" fill="white"/>
<path d="M22.6666 19.8333H11.3333V21.25H22.6666V19.8333Z" fill="white"/>
<path d="M11.3333 22.6667H22.6666V24.0833H11.3333V22.6667Z" fill="white"/>
<path d="M19.8333 25.5H11.3333V26.9167H19.8333V25.5Z" fill="white"/>
<circle cx="25" cy="28" r="8" fill="#E7E9FF"/>
<path d="M20.756 30.8563L21.197 31.5384C21.2887 31.6819 21.4204 31.7948 21.575 31.8768L23.1501 29.4358H20C20 29.5948 20.0458 29.7537 20.1375 29.8973L20.756 30.8563Z" fill="#0066DA"/>
<path d="M25 26.5641L23.425 24.123C23.2703 24.2051 23.1386 24.3179 23.047 24.4615L20.1375 28.9743C20.0475 29.1148 20.0001 29.2739 20 29.4359H23.1501L25 26.5641Z" fill="#00AC47"/>
<path d="M28.4249 31.8768C28.5795 31.7948 28.7112 31.6819 28.8029 31.5384L28.9861 31.2563L29.8624 29.8973C29.9541 29.7537 29.9999 29.5948 29.9999 29.4358H26.8496L27.5199 30.6153L28.4249 31.8768Z" fill="#EA4335"/>
<path d="M25.0001 26.5641L26.5751 24.1231C26.4205 24.041 26.2429 24 26.0596 24H23.9405C23.7572 24 23.5797 24.0462 23.425 24.1231L25.0001 26.5641Z" fill="#00832D"/>
<path d="M26.8499 29.4358H23.15L21.575 31.8768C21.7296 31.9589 21.9071 31.9999 22.0904 31.9999H27.9094C28.0927 31.9999 28.2703 31.9537 28.4249 31.8768L26.8499 29.4358Z" fill="#2684FC"/>
<path d="M28.4078 26.7179L26.953 24.4615C26.8614 24.3179 26.7297 24.2051 26.575 24.123L25 26.5641L26.8499 29.4359H29.9943C29.9943 29.2769 29.9485 29.1179 29.8568 28.9743L28.4078 26.7179Z" fill="#FFBA00"/>
<defs>
<linearGradient id="paint0_linear_763_772" x1="24.0833" y1="17.177" x2="24.0833" y2="8.49992" gradientUnits="userSpaceOnUse">
<stop stop-color="#4E8DF5"/>
<stop offset="1" stop-color="#3D6ACD"/>
</linearGradient>
</defs>
</svg>
