<svg width="34" height="34" viewBox="0 0 34 34" fill="none" xmlns="http://www.w3.org/2000/svg">
<path d="M23.79 2.47925H9.56258C9.17137 2.47925 8.85425 2.79637 8.85425 3.18758V30.8126C8.85425 31.2038 9.17137 31.5209 9.56258 31.5209H30.1042C30.4955 31.5209 30.8126 31.2038 30.8126 30.8126V9.50181C30.8126 9.31396 30.738 9.13379 30.6051 9.00094L24.2909 2.68672C24.158 2.55387 23.9779 2.47925 23.79 2.47925Z" fill="white" stroke="#979593" stroke-width="2" stroke-miterlimit="10"/>
<path d="M23.7292 2.47925V8.85425C23.7292 9.24546 24.0464 9.56258 24.4376 9.56258H30.8126" stroke="#979593" stroke-width="2" stroke-miterlimit="10"/>
<path d="M21.9583 12.0417C24.8923 12.0417 27.2708 14.4202 27.2708 17.3542H21.9583V12.0417Z" fill="#F5BA9D"/>
<path d="M27.2708 18.0626C27.2708 21.6136 24.1967 24.4466 20.5645 24.0455C17.8037 23.7406 15.572 21.5089 15.2671 18.7481C14.8659 15.1159 17.699 12.0417 21.25 12.0417V18.0626H27.2708ZM27.9792 26.9167H12.0417C11.8461 26.9167 11.6875 27.0753 11.6875 27.2709C11.6875 27.4665 11.8461 27.6251 12.0417 27.6251H27.9792C28.1747 27.6251 28.3333 27.4665 28.3333 27.2709C28.3333 27.0753 28.1747 26.9167 27.9792 26.9167ZM27.9792 25.1459H12.0417C11.8461 25.1459 11.6875 25.3045 11.6875 25.5001C11.6875 25.6957 11.8461 25.8542 12.0417 25.8542H27.9792C28.1747 25.8542 28.3333 25.6957 28.3333 25.5001C28.3333 25.3045 28.1747 25.1459 27.9792 25.1459Z" fill="#C8C6C4"/>
<path d="M4.24992 26.2084H15.5833C16.3656 26.2084 16.9999 25.5741 16.9999 24.7917V13.4584C16.9999 12.676 16.3656 12.0417 15.5833 12.0417H4.24992C3.46753 12.0417 2.83325 12.676 2.83325 13.4584V24.7917C2.83325 25.5741 3.46753 26.2084 4.24992 26.2084Z" fill="#C43E1C"/>
<path d="M10.5732 14.875C11.6199 14.875 12.4219 15.1097 12.9779 15.578C13.5342 16.0466 13.8124 16.7254 13.8124 17.6138C13.8124 18.1844 13.6747 18.6917 13.3997 19.1357C13.1247 19.5801 12.7334 19.9255 12.2262 20.1721C11.719 20.4183 11.131 20.5417 10.4629 20.5417H8.85373V23.7292H7.08325V14.875H10.5732ZM8.85377 19.125H10.2586C10.8063 19.125 11.22 19.0014 11.5 18.7548C11.7797 18.5079 11.9194 18.1474 11.9194 17.6733C11.9194 16.7523 11.3834 16.2917 10.3109 16.2917H8.85377V19.125Z" fill="white"/>
</svg>
